<svg xmlns="http://www.w3.org/2000/svg" xmlns:xlink="http://www.w3.org/1999/xlink" width="512" zoomAndPan="magnify" viewBox="0 0 384 383.999986" height="512" preserveAspectRatio="xMidYMid meet" version="1.0"><defs><clipPath id="5635600636"><path d="M 74.226562 74.226562 L 311.976562 74.226562 L 311.976562 311.976562 L 74.226562 311.976562 Z M 74.226562 74.226562 " clip-rule="nonzero"/></clipPath><clipPath id="9a55f9c190"><path d="M 207.753906 216.265625 L 327 216.265625 L 327 335.515625 L 207.753906 335.515625 Z M 207.753906 216.265625 " clip-rule="nonzero"/></clipPath><clipPath id="c6f4553454"><path d="M 217.699219 226.210938 L 317.449219 226.210938 L 317.449219 325.960938 L 217.699219 325.960938 Z M 217.699219 226.210938 " clip-rule="nonzero"/></clipPath></defs><rect x="-38.4" width="460.8" fill="#ffffff" y="-38.399999" height="460.799983" fill-opacity="1"/><rect x="-38.4" width="460.8" fill="#ffffff" y="-38.399999" height="460.799983" fill-opacity="1"/><path fill="#ff5757" d="M 384 192 C 384 195.140625 383.921875 198.28125 383.769531 201.421875 C 383.613281 204.558594 383.382812 207.691406 383.074219 210.820312 C 382.765625 213.945312 382.382812 217.0625 381.921875 220.171875 C 381.460938 223.28125 380.921875 226.375 380.3125 229.457031 C 379.699219 232.539062 379.007812 235.605469 378.246094 238.652344 C 377.480469 241.699219 376.644531 244.726562 375.734375 247.734375 C 374.820312 250.742188 373.835938 253.722656 372.777344 256.683594 C 371.71875 259.640625 370.585938 262.570312 369.382812 265.476562 C 368.183594 268.378906 366.910156 271.25 365.566406 274.089844 C 364.222656 276.929688 362.808594 279.738281 361.328125 282.507812 C 359.847656 285.28125 358.300781 288.011719 356.683594 290.707031 C 355.070312 293.402344 353.386719 296.058594 351.640625 298.667969 C 349.894531 301.28125 348.085938 303.851562 346.214844 306.375 C 344.34375 308.898438 342.410156 311.375 340.417969 313.804688 C 338.425781 316.234375 336.371094 318.609375 334.261719 320.9375 C 332.152344 323.265625 329.988281 325.542969 327.765625 327.765625 C 325.542969 329.988281 323.265625 332.152344 320.9375 334.261719 C 318.609375 336.371094 316.234375 338.425781 313.804688 340.417969 C 311.375 342.410156 308.898438 344.34375 306.375 346.214844 C 303.851562 348.085938 301.28125 349.894531 298.667969 351.640625 C 296.058594 353.386719 293.402344 355.066406 290.707031 356.683594 C 288.011719 358.300781 285.28125 359.847656 282.507812 361.328125 C 279.738281 362.808594 276.929688 364.222656 274.089844 365.566406 C 271.25 366.910156 268.378906 368.183594 265.476562 369.382812 C 262.570312 370.585938 259.640625 371.71875 256.683594 372.777344 C 253.722656 373.835938 250.742188 374.820312 247.734375 375.734375 C 244.726562 376.644531 241.699219 377.480469 238.652344 378.246094 C 235.605469 379.007812 232.539062 379.699219 229.457031 380.3125 C 226.375 380.921875 223.28125 381.460938 220.171875 381.921875 C 217.0625 382.382812 213.945312 382.765625 210.820312 383.074219 C 207.691406 383.382812 204.558594 383.613281 201.421875 383.769531 C 198.28125 383.921875 195.140625 384 192 384 C 188.859375 384 185.71875 383.921875 182.578125 383.769531 C 179.441406 383.613281 176.308594 383.382812 173.179688 383.074219 C 170.054688 382.765625 166.9375 382.382812 163.828125 381.921875 C 160.71875 381.460938 157.625 380.921875 154.542969 380.3125 C 151.460938 379.699219 148.394531 379.007812 145.347656 378.246094 C 142.300781 377.480469 139.273438 376.644531 136.265625 375.734375 C 133.257812 374.820312 130.277344 373.835938 127.316406 372.777344 C 124.359375 371.71875 121.429688 370.585938 118.523438 369.382812 C 115.621094 368.183594 112.75 366.910156 109.910156 365.566406 C 107.070312 364.222656 104.261719 362.808594 101.492188 361.328125 C 98.71875 359.847656 95.988281 358.300781 93.292969 356.683594 C 90.597656 355.066406 87.941406 353.386719 85.332031 351.640625 C 82.71875 349.894531 80.148438 348.085938 77.625 346.214844 C 75.101562 344.34375 72.625 342.410156 70.195312 340.417969 C 67.765625 338.425781 65.390625 336.371094 63.0625 334.261719 C 60.734375 332.152344 58.457031 329.988281 56.234375 327.765625 C 54.011719 325.542969 51.847656 323.265625 49.738281 320.9375 C 47.628906 318.609375 45.574219 316.230469 43.582031 313.804688 C 41.589844 311.375 39.65625 308.898438 37.785156 306.375 C 35.914062 303.851562 34.105469 301.28125 32.359375 298.667969 C 30.613281 296.058594 28.929688 293.402344 27.316406 290.707031 C 25.699219 288.011719 24.152344 285.28125 22.671875 282.507812 C 21.191406 279.738281 19.777344 276.929688 18.433594 274.089844 C 17.089844 271.25 15.816406 268.378906 14.613281 265.476562 C 13.414062 262.570312 12.28125 259.640625 11.222656 256.683594 C 10.164062 253.722656 9.179688 250.742188 8.265625 247.734375 C 7.355469 244.726562 6.515625 241.699219 5.753906 238.652344 C 4.992188 235.605469 4.300781 232.539062 3.6875 229.457031 C 3.078125 226.375 2.539062 223.28125 2.078125 220.171875 C 1.617188 217.0625 1.234375 213.945312 0.925781 210.820312 C 0.617188 207.691406 0.386719 204.558594 0.230469 201.421875 C 0.078125 198.28125 0 195.140625 0 192 C 0 188.859375 0.078125 185.71875 0.230469 182.578125 C 0.386719 179.441406 0.617188 176.308594 0.925781 173.179688 C 1.234375 170.054688 1.617188 166.9375 2.078125 163.828125 C 2.539062 160.71875 3.078125 157.625 3.6875 154.542969 C 4.300781 151.460938 4.992188 148.394531 5.753906 145.347656 C 6.515625 142.300781 7.355469 139.273438 8.265625 136.265625 C 9.179688 133.257812 10.164062 130.277344 11.222656 127.316406 C 12.28125 124.359375 13.414062 121.429688 14.613281 118.523438 C 15.816406 115.621094 17.089844 112.75 18.433594 109.910156 C 19.777344 107.070312 21.191406 104.261719 22.671875 101.492188 C 24.152344 98.71875 25.699219 95.988281 27.316406 93.292969 C 28.929688 90.597656 30.613281 87.941406 32.359375 85.332031 C 34.105469 82.71875 35.914062 80.148438 37.785156 77.625 C 39.65625 75.101562 41.589844 72.625 43.582031 70.195312 C 45.574219 67.765625 47.628906 65.390625 49.738281 63.0625 C 51.847656 60.734375 54.011719 58.457031 56.234375 56.234375 C 58.457031 54.011719 60.734375 51.847656 63.0625 49.738281 C 65.390625 47.628906 67.765625 45.574219 70.195312 43.582031 C 72.625 41.589844 75.101562 39.65625 77.625 37.785156 C 80.148438 35.914062 82.71875 34.105469 85.332031 32.359375 C 87.941406 30.613281 90.597656 28.929688 93.292969 27.316406 C 95.988281 25.699219 98.71875 24.152344 101.492188 22.671875 C 104.261719 21.191406 107.070312 19.777344 109.910156 18.433594 C 112.75 17.089844 115.621094 15.816406 118.523438 14.613281 C 121.429688 13.414062 124.359375 12.28125 127.316406 11.222656 C 130.277344 10.164062 133.257812 9.179688 136.265625 8.265625 C 139.273438 7.355469 142.300781 6.515625 145.347656 5.753906 C 148.394531 4.992188 151.460938 4.300781 154.542969 3.6875 C 157.625 3.078125 160.71875 2.539062 163.828125 2.078125 C 166.9375 1.617188 170.054688 1.234375 173.179688 0.925781 C 176.308594 0.617188 179.441406 0.386719 182.578125 0.230469 C 185.71875 0.078125 188.859375 0 192 0 C 195.140625 0 198.28125 0.078125 201.421875 0.230469 C 204.558594 0.386719 207.691406 0.617188 210.820312 0.925781 C 213.945312 1.234375 217.0625 1.617188 220.171875 2.078125 C 223.28125 2.539062 226.375 3.078125 229.457031 3.6875 C 232.539062 4.300781 235.605469 4.992188 238.652344 5.753906 C 241.699219 6.515625 244.726562 7.355469 247.734375 8.265625 C 250.742188 9.179688 253.722656 10.164062 256.683594 11.222656 C 259.640625 12.28125 262.570312 13.414062 265.476562 14.613281 C 268.378906 15.816406 271.25 17.089844 274.089844 18.433594 C 276.929688 19.777344 279.738281 21.191406 282.507812 22.671875 C 285.28125 24.152344 288.011719 25.699219 290.707031 27.316406 C 293.402344 28.929688 296.058594 30.613281 298.667969 32.359375 C 301.28125 34.105469 303.851562 35.914062 306.375 37.785156 C 308.898438 39.65625 311.375 41.589844 313.804688 43.582031 C 316.234375 45.574219 318.609375 47.628906 320.9375 49.738281 C 323.265625 51.847656 325.542969 54.011719 327.765625 56.234375 C 329.988281 58.457031 332.152344 60.734375 334.261719 63.0625 C 336.371094 65.390625 338.425781 67.765625 340.417969 70.195312 C 342.410156 72.625 344.34375 75.101562 346.214844 77.625 C 348.085938 80.148438 349.894531 82.71875 351.640625 85.332031 C 353.386719 87.941406 355.070312 90.597656 356.683594 93.292969 C 358.300781 95.988281 359.847656 98.71875 361.328125 101.492188 C 362.808594 104.261719 364.222656 107.070312 365.566406 109.910156 C 366.910156 112.75 368.183594 115.621094 369.382812 118.523438 C 370.585938 121.429688 371.71875 124.359375 372.777344 127.316406 C 373.835938 130.277344 374.820312 133.257812 375.734375 136.265625 C 376.644531 139.273438 377.484375 142.300781 378.246094 145.347656 C 379.007812 148.394531 379.699219 151.460938 380.3125 154.542969 C 380.921875 157.625 381.460938 160.71875 381.921875 163.828125 C 382.382812 166.9375 382.765625 170.054688 383.074219 173.179688 C 383.382812 176.308594 383.613281 179.441406 383.769531 182.578125 C 383.921875 185.71875 384 188.859375 384 192 Z M 384 192 " fill-opacity="1" fill-rule="nonzero"/><g clip-path="url(#5635600636)"><path fill="#ffffff" d="M 193.101562 74.226562 C 191.15625 74.226562 189.210938 74.273438 187.269531 74.367188 C 185.324219 74.464844 183.386719 74.609375 181.449219 74.796875 C 179.511719 74.988281 177.582031 75.226562 175.65625 75.511719 C 173.734375 75.796875 171.816406 76.128906 169.910156 76.511719 C 168 76.890625 166.105469 77.316406 164.214844 77.789062 C 162.328125 78.261719 160.453125 78.78125 158.59375 79.34375 C 156.730469 79.910156 154.882812 80.519531 153.054688 81.175781 C 151.222656 81.832031 149.40625 82.53125 147.609375 83.273438 C 145.8125 84.019531 144.035156 84.808594 142.273438 85.640625 C 140.515625 86.472656 138.777344 87.34375 137.0625 88.261719 C 135.347656 89.179688 133.65625 90.136719 131.988281 91.136719 C 130.316406 92.136719 128.675781 93.179688 127.058594 94.261719 C 125.441406 95.339844 123.851562 96.460938 122.285156 97.621094 C 120.722656 98.777344 119.191406 99.976562 117.6875 101.210938 C 116.183594 102.441406 114.710938 103.714844 113.269531 105.019531 C 111.828125 106.328125 110.417969 107.667969 109.042969 109.042969 C 107.667969 110.417969 106.328125 111.828125 105.019531 113.269531 C 103.714844 114.710938 102.441406 116.183594 101.210938 117.6875 C 99.976562 119.191406 98.777344 120.722656 97.621094 122.285156 C 96.460938 123.851562 95.339844 125.441406 94.261719 127.058594 C 93.179688 128.675781 92.136719 130.316406 91.136719 131.988281 C 90.136719 133.65625 89.179688 135.347656 88.261719 137.0625 C 87.34375 138.777344 86.472656 140.515625 85.640625 142.273438 C 84.808594 144.035156 84.019531 145.8125 83.273438 147.609375 C 82.53125 149.40625 81.832031 151.222656 81.175781 153.054688 C 80.519531 154.882812 79.910156 156.730469 79.34375 158.59375 C 78.78125 160.453125 78.261719 162.328125 77.789062 164.214844 C 77.316406 166.105469 76.890625 168 76.511719 169.910156 C 76.128906 171.816406 75.796875 173.734375 75.511719 175.65625 C 75.226562 177.582031 74.988281 179.511719 74.796875 181.449219 C 74.609375 183.386719 74.464844 185.324219 74.367188 187.269531 C 74.273438 189.210938 74.226562 191.15625 74.226562 193.101562 C 74.226562 195.046875 74.273438 196.992188 74.367188 198.933594 C 74.464844 200.875 74.609375 202.816406 74.796875 204.753906 C 74.988281 206.6875 75.226562 208.617188 75.511719 210.542969 C 75.796875 212.46875 76.128906 214.382812 76.511719 216.292969 C 76.890625 218.199219 77.316406 220.097656 77.789062 221.984375 C 78.261719 223.871094 78.78125 225.746094 79.34375 227.609375 C 79.910156 229.46875 80.519531 231.316406 81.175781 233.148438 C 81.832031 234.980469 82.53125 236.792969 83.273438 238.59375 C 84.019531 240.390625 84.808594 242.167969 85.640625 243.925781 C 86.472656 245.683594 87.34375 247.421875 88.261719 249.136719 C 89.179688 250.855469 90.136719 252.546875 91.136719 254.214844 C 92.136719 255.882812 93.179688 257.527344 94.261719 259.144531 C 95.339844 260.761719 96.460938 262.351562 97.621094 263.914062 C 98.777344 265.476562 99.976562 267.011719 101.210938 268.515625 C 102.441406 270.019531 103.714844 271.492188 105.019531 272.933594 C 106.328125 274.375 107.667969 275.78125 109.042969 277.15625 C 110.417969 278.535156 111.828125 279.875 113.269531 281.179688 C 114.710938 282.488281 116.183594 283.757812 117.6875 284.992188 C 119.191406 286.226562 120.722656 287.421875 122.285156 288.582031 C 123.851562 289.742188 125.441406 290.859375 127.058594 291.941406 C 128.675781 293.023438 130.316406 294.0625 131.988281 295.0625 C 133.65625 296.0625 135.347656 297.023438 137.0625 297.9375 C 138.777344 298.855469 140.515625 299.730469 142.273438 300.5625 C 144.035156 301.394531 145.8125 302.183594 147.609375 302.925781 C 149.40625 303.671875 151.222656 304.371094 153.054688 305.027344 C 154.882812 305.683594 156.730469 306.292969 158.59375 306.855469 C 160.453125 307.421875 162.328125 307.941406 164.214844 308.414062 C 166.105469 308.886719 168 309.3125 169.910156 309.691406 C 171.816406 310.070312 173.734375 310.402344 175.65625 310.6875 C 177.582031 310.972656 179.511719 311.210938 181.449219 311.402344 C 183.386719 311.59375 185.324219 311.738281 187.269531 311.832031 C 189.210938 311.929688 191.15625 311.976562 193.101562 311.976562 C 195.046875 311.976562 196.992188 311.929688 198.933594 311.832031 C 200.875 311.738281 202.816406 311.59375 204.753906 311.402344 C 206.6875 311.210938 208.617188 310.972656 210.542969 310.6875 C 212.46875 310.402344 214.382812 310.070312 216.292969 309.691406 C 218.199219 309.3125 220.097656 308.886719 221.984375 308.414062 C 223.871094 307.941406 225.746094 307.421875 227.609375 306.855469 C 229.46875 306.292969 231.316406 305.683594 233.148438 305.027344 C 234.980469 304.371094 236.792969 303.671875 238.59375 302.925781 C 240.390625 302.183594 242.167969 301.394531 243.925781 300.5625 C 245.683594 299.730469 247.421875 298.855469 249.136719 297.9375 C 250.855469 297.023438 252.546875 296.0625 254.214844 295.0625 C 255.882812 294.0625 257.527344 293.023438 259.144531 291.941406 C 260.761719 290.859375 262.351562 289.742188 263.914062 288.582031 C 265.476562 287.421875 267.011719 286.226562 268.515625 284.992188 C 270.019531 283.757812 271.492188 282.488281 272.933594 281.179688 C 274.375 279.875 275.78125 278.535156 277.15625 277.15625 C 278.535156 275.78125 279.875 274.375 281.179688 272.933594 C 282.488281 271.492188 283.757812 270.019531 284.992188 268.515625 C 286.226562 267.011719 287.421875 265.476562 288.582031 263.914062 C 289.742188 262.351562 290.859375 260.761719 291.941406 259.144531 C 293.023438 257.527344 294.0625 255.882812 295.0625 254.214844 C 296.0625 252.546875 297.023438 250.855469 297.9375 249.136719 C 298.855469 247.421875 299.730469 245.683594 300.5625 243.925781 C 301.394531 242.167969 302.183594 240.390625 302.925781 238.59375 C 303.671875 236.792969 304.371094 234.980469 305.027344 233.148438 C 305.683594 231.316406 306.292969 229.46875 306.855469 227.609375 C 307.421875 225.746094 307.941406 223.871094 308.414062 221.984375 C 308.886719 220.097656 309.3125 218.199219 309.691406 216.292969 C 310.070312 214.382812 310.402344 212.46875 310.6875 210.542969 C 310.972656 208.617188 311.210938 206.6875 311.402344 204.753906 C 311.59375 202.816406 311.738281 200.875 311.832031 198.933594 C 311.929688 196.992188 311.976562 195.046875 311.976562 193.101562 C 311.972656 191.15625 311.925781 189.210938 311.828125 187.269531 C 311.730469 185.328125 311.585938 183.386719 311.390625 181.453125 C 311.199219 179.515625 310.960938 177.589844 310.671875 175.664062 C 310.386719 173.742188 310.050781 171.824219 309.671875 169.917969 C 309.289062 168.011719 308.863281 166.113281 308.386719 164.226562 C 307.914062 162.339844 307.394531 160.46875 306.828125 158.605469 C 306.261719 156.746094 305.652344 154.902344 304.996094 153.070312 C 304.339844 151.238281 303.636719 149.425781 302.894531 147.628906 C 302.148438 145.832031 301.359375 144.054688 300.527344 142.296875 C 299.695312 140.539062 298.820312 138.804688 297.902344 137.089844 C 296.984375 135.375 296.023438 133.683594 295.023438 132.015625 C 294.023438 130.347656 292.984375 128.703125 291.902344 127.085938 C 290.820312 125.46875 289.703125 123.882812 288.542969 122.320312 C 287.382812 120.757812 286.1875 119.226562 284.953125 117.722656 C 283.71875 116.21875 282.449219 114.746094 281.144531 113.304688 C 279.835938 111.863281 278.496094 110.457031 277.121094 109.082031 C 275.746094 107.707031 274.335938 106.363281 272.894531 105.058594 C 271.457031 103.753906 269.984375 102.480469 268.480469 101.25 C 266.976562 100.015625 265.445312 98.816406 263.882812 97.660156 C 262.320312 96.5 260.730469 95.378906 259.113281 94.300781 C 257.496094 93.21875 255.855469 92.175781 254.1875 91.175781 C 252.519531 90.175781 250.828125 89.21875 249.113281 88.300781 C 247.398438 87.382812 245.660156 86.507812 243.902344 85.675781 C 242.144531 84.84375 240.367188 84.054688 238.574219 83.308594 C 236.777344 82.5625 234.960938 81.863281 233.132812 81.207031 C 231.300781 80.550781 229.453125 79.9375 227.59375 79.371094 C 225.734375 78.808594 223.859375 78.289062 221.972656 77.8125 C 220.085938 77.339844 218.191406 76.910156 216.285156 76.53125 C 214.375 76.148438 212.460938 75.816406 210.535156 75.527344 C 208.613281 75.242188 206.683594 75.003906 204.75 74.808594 C 202.8125 74.617188 200.875 74.472656 198.933594 74.375 C 196.988281 74.277344 195.046875 74.226562 193.101562 74.226562 Z M 193.101562 91.207031 C 194.679688 91.210938 196.253906 91.25 197.832031 91.324219 C 199.40625 91.402344 200.980469 91.511719 202.550781 91.660156 C 204.121094 91.808594 205.6875 91.996094 207.25 92.214844 C 208.8125 92.4375 210.371094 92.695312 211.921875 92.988281 C 213.46875 93.28125 215.011719 93.613281 216.546875 93.976562 C 218.082031 94.34375 219.609375 94.742188 221.125 95.179688 C 222.640625 95.613281 224.148438 96.085938 225.640625 96.589844 C 227.136719 97.097656 228.617188 97.636719 230.085938 98.210938 C 231.554688 98.789062 233.011719 99.394531 234.453125 100.039062 C 235.894531 100.679688 237.320312 101.355469 238.730469 102.0625 C 240.140625 102.773438 241.53125 103.511719 242.90625 104.285156 C 244.28125 105.058594 245.640625 105.863281 246.976562 106.699219 C 248.316406 107.535156 249.632812 108.402344 250.933594 109.300781 C 252.230469 110.195312 253.507812 111.125 254.761719 112.078125 C 256.015625 113.035156 257.25 114.023438 258.457031 115.035156 C 259.667969 116.046875 260.851562 117.089844 262.011719 118.160156 C 263.171875 119.226562 264.308594 120.320312 265.417969 121.445312 C 266.527344 122.566406 267.613281 123.710938 268.667969 124.882812 C 269.726562 126.054688 270.753906 127.25 271.753906 128.46875 C 272.757812 129.6875 273.730469 130.929688 274.671875 132.195312 C 275.617188 133.460938 276.53125 134.746094 277.414062 136.050781 C 278.296875 137.359375 279.152344 138.6875 279.972656 140.03125 C 280.796875 141.378906 281.585938 142.746094 282.347656 144.128906 C 283.105469 145.511719 283.832031 146.910156 284.527344 148.328125 C 285.21875 149.746094 285.878906 151.175781 286.507812 152.625 C 287.136719 154.074219 287.730469 155.535156 288.289062 157.007812 C 288.847656 158.484375 289.375 159.972656 289.863281 161.472656 C 290.355469 162.972656 290.8125 164.480469 291.230469 166 C 291.652344 167.523438 292.039062 169.050781 292.386719 170.589844 C 292.738281 172.128906 293.050781 173.675781 293.328125 175.226562 C 293.605469 176.78125 293.847656 178.339844 294.054688 179.90625 C 294.257812 181.46875 294.429688 183.039062 294.558594 184.609375 L 234.707031 184.609375 C 234.464844 183.421875 234.175781 182.246094 233.832031 181.082031 C 233.488281 179.917969 233.097656 178.769531 232.65625 177.640625 C 232.21875 176.511719 231.730469 175.402344 231.195312 174.3125 C 230.660156 173.226562 230.078125 172.160156 229.449219 171.121094 C 228.824219 170.085938 228.152344 169.074219 227.441406 168.09375 C 226.726562 167.113281 225.972656 166.164062 225.179688 165.246094 C 224.382812 164.332031 223.550781 163.449219 222.683594 162.605469 C 221.8125 161.761719 220.90625 160.953125 219.96875 160.1875 C 219.03125 159.417969 218.058594 158.691406 217.058594 158.007812 C 216.058594 157.324219 215.027344 156.683594 213.972656 156.085938 C 212.914062 155.492188 211.835938 154.941406 210.730469 154.4375 C 209.628906 153.933594 208.507812 153.476562 207.363281 153.070312 C 206.222656 152.664062 205.0625 152.304688 203.890625 151.996094 C 202.71875 151.6875 201.535156 151.429688 200.339844 151.222656 C 199.144531 151.015625 197.941406 150.863281 196.734375 150.757812 C 195.523438 150.65625 194.3125 150.601562 193.101562 150.601562 C 191.886719 150.601562 190.675781 150.65625 189.46875 150.757812 C 188.261719 150.863281 187.058594 151.015625 185.863281 151.222656 C 184.667969 151.429688 183.484375 151.6875 182.3125 151.996094 C 181.136719 152.304688 179.980469 152.664062 178.835938 153.070312 C 177.695312 153.476562 176.574219 153.933594 175.46875 154.4375 C 174.367188 154.941406 173.285156 155.492188 172.230469 156.085938 C 171.171875 156.683594 170.144531 157.324219 169.144531 158.007812 C 168.140625 158.691406 167.171875 159.417969 166.234375 160.1875 C 165.292969 160.953125 164.390625 161.761719 163.519531 162.605469 C 162.648438 163.449219 161.816406 164.332031 161.023438 165.246094 C 160.226562 166.164062 159.472656 167.113281 158.761719 168.09375 C 158.046875 169.074219 157.378906 170.085938 156.75 171.121094 C 156.125 172.160156 155.542969 173.226562 155.007812 174.3125 C 154.472656 175.402344 153.984375 176.511719 153.542969 177.640625 C 153.101562 178.769531 152.710938 179.917969 152.371094 181.082031 C 152.027344 182.246094 151.734375 183.421875 151.496094 184.609375 L 91.640625 184.609375 C 91.773438 183.039062 91.941406 181.46875 92.148438 179.90625 C 92.355469 178.339844 92.59375 176.78125 92.875 175.226562 C 93.152344 173.675781 93.464844 172.128906 93.8125 170.589844 C 94.164062 169.050781 94.550781 167.523438 94.96875 166 C 95.390625 164.480469 95.847656 162.972656 96.335938 161.472656 C 96.828125 159.972656 97.351562 158.484375 97.914062 157.007812 C 98.472656 155.535156 99.066406 154.074219 99.691406 152.625 C 100.320312 151.175781 100.980469 149.746094 101.675781 148.328125 C 102.371094 146.910156 103.097656 145.511719 103.855469 144.128906 C 104.613281 142.746094 105.40625 141.378906 106.226562 140.03125 C 107.050781 138.6875 107.902344 137.359375 108.785156 136.050781 C 109.671875 134.746094 110.585938 133.460938 111.527344 132.195312 C 112.472656 130.929688 113.445312 129.6875 114.445312 128.46875 C 115.445312 127.25 116.476562 126.054688 117.53125 124.882812 C 118.589844 123.710938 119.671875 122.566406 120.78125 121.445312 C 121.894531 120.320312 123.027344 119.226562 124.1875 118.160156 C 125.351562 117.089844 126.535156 116.046875 127.746094 115.035156 C 128.953125 114.023438 130.183594 113.035156 131.441406 112.078125 C 132.695312 111.125 133.972656 110.195312 135.269531 109.300781 C 136.566406 108.402344 137.886719 107.535156 139.222656 106.699219 C 140.5625 105.863281 141.917969 105.058594 143.292969 104.285156 C 144.667969 103.511719 146.0625 102.773438 147.472656 102.0625 C 148.882812 101.355469 150.308594 100.679688 151.75 100.039062 C 153.191406 99.394531 154.644531 98.789062 156.113281 98.210938 C 157.582031 97.636719 159.066406 97.097656 160.558594 96.589844 C 162.054688 96.085938 163.558594 95.613281 165.078125 95.179688 C 166.59375 94.742188 168.117188 94.34375 169.652344 93.976562 C 171.1875 93.613281 172.730469 93.28125 174.28125 92.988281 C 175.832031 92.695312 177.386719 92.4375 178.949219 92.214844 C 180.511719 91.996094 182.078125 91.808594 183.648438 91.660156 C 185.21875 91.511719 186.792969 91.402344 188.371094 91.324219 C 189.945312 91.25 191.523438 91.210938 193.101562 91.207031 Z M 218.574219 193.101562 C 218.574219 193.933594 218.53125 194.765625 218.453125 195.597656 C 218.371094 196.429688 218.246094 197.253906 218.085938 198.070312 C 217.921875 198.886719 217.71875 199.695312 217.476562 200.496094 C 217.234375 201.292969 216.953125 202.078125 216.636719 202.847656 C 216.316406 203.621094 215.960938 204.371094 215.566406 205.109375 C 215.171875 205.84375 214.746094 206.558594 214.28125 207.253906 C 213.816406 207.945312 213.320312 208.617188 212.792969 209.261719 C 212.261719 209.90625 211.703125 210.523438 211.113281 211.113281 C 210.523438 211.703125 209.90625 212.261719 209.261719 212.792969 C 208.617188 213.320312 207.945312 213.816406 207.253906 214.28125 C 206.558594 214.746094 205.84375 215.171875 205.109375 215.566406 C 204.371094 215.960938 203.621094 216.316406 202.847656 216.636719 C 202.078125 216.953125 201.292969 217.234375 200.496094 217.476562 C 199.695312 217.71875 198.886719 217.921875 198.070312 218.085938 C 197.253906 218.246094 196.429688 218.371094 195.597656 218.453125 C 194.765625 218.53125 193.933594 218.574219 193.101562 218.574219 C 192.265625 218.574219 191.433594 218.53125 190.605469 218.453125 C 189.773438 218.371094 188.949219 218.246094 188.132812 218.085938 C 187.3125 217.921875 186.503906 217.71875 185.707031 217.476562 C 184.90625 217.234375 184.125 216.953125 183.351562 216.636719 C 182.582031 216.316406 181.828125 215.960938 181.09375 215.566406 C 180.355469 215.171875 179.640625 214.746094 178.949219 214.28125 C 178.253906 213.816406 177.585938 213.320312 176.941406 212.792969 C 176.296875 212.261719 175.679688 211.703125 175.089844 211.113281 C 174.5 210.523438 173.9375 209.90625 173.410156 209.261719 C 172.878906 208.617188 172.382812 207.945312 171.921875 207.253906 C 171.457031 206.558594 171.027344 205.84375 170.636719 205.109375 C 170.242188 204.371094 169.886719 203.621094 169.566406 202.847656 C 169.246094 202.078125 168.964844 201.292969 168.722656 200.496094 C 168.480469 199.695312 168.28125 198.886719 168.117188 198.070312 C 167.953125 197.253906 167.832031 196.429688 167.75 195.597656 C 167.667969 194.765625 167.628906 193.933594 167.628906 193.101562 C 167.628906 192.265625 167.667969 191.433594 167.75 190.605469 C 167.832031 189.773438 167.953125 188.949219 168.117188 188.132812 C 168.28125 187.3125 168.480469 186.503906 168.722656 185.707031 C 168.964844 184.90625 169.246094 184.125 169.566406 183.351562 C 169.886719 182.582031 170.242188 181.828125 170.636719 181.09375 C 171.027344 180.355469 171.457031 179.640625 171.921875 178.949219 C 172.382812 178.253906 172.878906 177.585938 173.410156 176.941406 C 173.9375 176.296875 174.5 175.679688 175.089844 175.089844 C 175.679688 174.5 176.296875 173.9375 176.941406 173.410156 C 177.585938 172.878906 178.253906 172.382812 178.949219 171.921875 C 179.640625 171.457031 180.355469 171.027344 181.09375 170.636719 C 181.828125 170.242188 182.582031 169.886719 183.351562 169.566406 C 184.125 169.246094 184.90625 168.964844 185.707031 168.722656 C 186.503906 168.480469 187.3125 168.28125 188.132812 168.117188 C 188.949219 167.953125 189.773438 167.832031 190.605469 167.75 C 191.433594 167.667969 192.265625 167.628906 193.101562 167.628906 C 193.933594 167.628906 194.765625 167.667969 195.597656 167.75 C 196.429688 167.832031 197.253906 167.953125 198.070312 168.117188 C 198.886719 168.28125 199.695312 168.480469 200.496094 168.722656 C 201.292969 168.964844 202.078125 169.246094 202.847656 169.566406 C 203.621094 169.886719 204.371094 170.242188 205.109375 170.636719 C 205.84375 171.027344 206.558594 171.457031 207.253906 171.921875 C 207.945312 172.382812 208.617188 172.878906 209.261719 173.410156 C 209.90625 173.9375 210.523438 174.5 211.113281 175.089844 C 211.703125 175.679688 212.261719 176.296875 212.792969 176.941406 C 213.320312 177.585938 213.816406 178.253906 214.28125 178.949219 C 214.746094 179.640625 215.171875 180.355469 215.566406 181.09375 C 215.960938 181.828125 216.316406 182.582031 216.636719 183.351562 C 216.953125 184.125 217.234375 184.90625 217.476562 185.707031 C 217.71875 186.503906 217.921875 187.3125 218.085938 188.132812 C 218.246094 188.949219 218.371094 189.773438 218.453125 190.605469 C 218.53125 191.433594 218.574219 192.265625 218.574219 193.101562 Z M 193.101562 294.992188 C 191.523438 294.992188 189.945312 294.953125 188.371094 294.875 C 186.792969 294.800781 185.21875 294.6875 183.648438 294.539062 C 182.078125 294.390625 180.511719 294.207031 178.949219 293.984375 C 177.386719 293.765625 175.832031 293.507812 174.28125 293.210938 C 172.730469 292.917969 171.1875 292.589844 169.652344 292.222656 C 168.117188 291.859375 166.59375 291.457031 165.078125 291.023438 C 163.558594 290.585938 162.054688 290.117188 160.558594 289.609375 C 159.066406 289.105469 157.582031 288.5625 156.113281 287.988281 C 154.644531 287.414062 153.191406 286.804688 151.75 286.164062 C 150.308594 285.519531 148.882812 284.847656 147.472656 284.136719 C 146.0625 283.429688 144.667969 282.6875 143.292969 281.914062 C 141.917969 281.140625 140.5625 280.335938 139.222656 279.5 C 137.886719 278.664062 136.566406 277.800781 135.269531 276.902344 C 133.972656 276.003906 132.695312 275.078125 131.441406 274.121094 C 130.183594 273.164062 128.953125 272.179688 127.746094 271.167969 C 126.535156 270.152344 125.351562 269.113281 124.1875 268.042969 C 123.027344 266.972656 121.894531 265.878906 120.78125 264.757812 C 119.671875 263.636719 118.589844 262.488281 117.53125 261.320312 C 116.476562 260.148438 115.445312 258.953125 114.445312 257.730469 C 113.445312 256.511719 112.472656 255.269531 111.527344 254.007812 C 110.585938 252.742188 109.671875 251.457031 108.785156 250.148438 C 107.902344 248.84375 107.050781 247.515625 106.226562 246.167969 C 105.40625 244.820312 104.613281 243.457031 103.855469 242.074219 C 103.097656 240.691406 102.371094 239.289062 101.675781 237.875 C 100.980469 236.457031 100.320312 235.023438 99.691406 233.578125 C 99.066406 232.128906 98.472656 230.667969 97.914062 229.191406 C 97.351562 227.71875 96.828125 226.230469 96.335938 224.730469 C 95.847656 223.230469 95.390625 221.71875 94.96875 220.199219 C 94.550781 218.679688 94.164062 217.148438 93.8125 215.609375 C 93.464844 214.070312 93.152344 212.527344 92.875 210.972656 C 92.59375 209.417969 92.355469 207.859375 92.148438 206.296875 C 91.941406 204.730469 91.773438 203.164062 91.640625 201.59375 L 151.496094 201.59375 C 151.734375 202.78125 152.027344 203.957031 152.371094 205.121094 C 152.710938 206.285156 153.101562 207.429688 153.542969 208.5625 C 153.984375 209.691406 154.472656 210.800781 155.007812 211.886719 C 155.542969 212.976562 156.125 214.039062 156.75 215.078125 C 157.378906 216.117188 158.046875 217.125 158.761719 218.109375 C 159.472656 219.089844 160.226562 220.039062 161.023438 220.953125 C 161.816406 221.871094 162.648438 222.75 163.519531 223.597656 C 164.390625 224.441406 165.292969 225.246094 166.234375 226.015625 C 167.171875 226.78125 168.140625 227.507812 169.144531 228.195312 C 170.144531 228.878906 171.171875 229.519531 172.230469 230.113281 C 173.285156 230.710938 174.367188 231.261719 175.46875 231.765625 C 176.574219 232.269531 177.695312 232.722656 178.835938 233.132812 C 179.980469 233.539062 181.136719 233.898438 182.3125 234.203125 C 183.484375 234.511719 184.667969 234.769531 185.863281 234.976562 C 187.058594 235.183594 188.261719 235.339844 189.46875 235.441406 C 190.675781 235.546875 191.886719 235.597656 193.101562 235.597656 C 194.3125 235.597656 195.523438 235.546875 196.734375 235.441406 C 197.941406 235.339844 199.144531 235.183594 200.339844 234.976562 C 201.535156 234.769531 202.71875 234.511719 203.890625 234.203125 C 205.0625 233.898438 206.222656 233.539062 207.363281 233.132812 C 208.507812 232.722656 209.628906 232.269531 210.730469 231.765625 C 211.835938 231.261719 212.914062 230.710938 213.972656 230.113281 C 215.027344 229.519531 216.058594 228.878906 217.058594 228.195312 C 218.058594 227.507812 219.03125 226.78125 219.96875 226.015625 C 220.90625 225.246094 221.8125 224.441406 222.683594 223.597656 C 223.550781 222.75 224.382812 221.871094 225.179688 220.953125 C 225.972656 220.039062 226.726562 219.089844 227.441406 218.109375 C 228.152344 217.125 228.824219 216.117188 229.449219 215.078125 C 230.078125 214.039062 230.660156 212.976562 231.195312 211.886719 C 231.730469 210.800781 232.21875 209.691406 232.65625 208.5625 C 233.097656 207.429688 233.488281 206.285156 233.832031 205.121094 C 234.175781 203.957031 234.464844 202.78125 234.707031 201.59375 L 294.570312 201.59375 C 294.4375 203.164062 294.265625 204.734375 294.0625 206.296875 C 293.855469 207.863281 293.613281 209.421875 293.335938 210.972656 C 293.058594 212.527344 292.746094 214.074219 292.394531 215.613281 C 292.046875 217.148438 291.660156 218.679688 291.238281 220.199219 C 290.820312 221.722656 290.363281 223.230469 289.875 224.730469 C 289.382812 226.230469 288.855469 227.71875 288.296875 229.195312 C 287.738281 230.667969 287.144531 232.128906 286.515625 233.578125 C 285.886719 235.027344 285.226562 236.457031 284.535156 237.875 C 283.839844 239.292969 283.113281 240.691406 282.355469 242.074219 C 281.59375 243.460938 280.804688 244.824219 279.980469 246.171875 C 279.160156 247.515625 278.304688 248.84375 277.421875 250.152344 C 276.539062 251.457031 275.625 252.742188 274.679688 254.007812 C 273.734375 255.273438 272.761719 256.515625 271.761719 257.734375 C 270.761719 258.953125 269.730469 260.148438 268.675781 261.320312 C 267.617188 262.492188 266.535156 263.640625 265.425781 264.761719 C 264.3125 265.882812 263.179688 266.976562 262.019531 268.046875 C 260.855469 269.113281 259.671875 270.15625 258.460938 271.167969 C 257.253906 272.183594 256.019531 273.167969 254.765625 274.125 C 253.511719 275.082031 252.234375 276.007812 250.9375 276.90625 C 249.636719 277.800781 248.320312 278.667969 246.980469 279.503906 C 245.644531 280.339844 244.285156 281.144531 242.910156 281.917969 C 241.535156 282.691406 240.144531 283.433594 238.734375 284.140625 C 237.324219 284.847656 235.898438 285.523438 234.457031 286.164062 C 233.015625 286.808594 231.558594 287.417969 230.089844 287.992188 C 228.621094 288.566406 227.136719 289.105469 225.644531 289.613281 C 224.148438 290.117188 222.644531 290.589844 221.125 291.023438 C 219.609375 291.460938 218.085938 291.859375 216.550781 292.226562 C 215.015625 292.589844 213.472656 292.921875 211.921875 293.214844 C 210.371094 293.507812 208.8125 293.765625 207.253906 293.984375 C 205.691406 294.207031 204.125 294.390625 202.550781 294.539062 C 200.980469 294.6875 199.40625 294.800781 197.832031 294.875 C 196.253906 294.953125 194.679688 294.992188 193.101562 294.992188 Z M 193.101562 294.992188 " fill-opacity="1" fill-rule="nonzero"/></g><g clip-path="url(#9a55f9c190)"><path fill="#ff5757" d="M 267.375 335.507812 C 258.457031 335.507812 249.433594 329.488281 249.433594 317.984375 L 249.433594 293.824219 L 225.277344 293.824219 C 213.773438 293.824219 207.753906 284.800781 207.753906 275.886719 C 207.753906 266.96875 213.773438 257.941406 225.277344 257.941406 L 249.433594 257.941406 L 249.433594 233.789062 C 249.433594 222.28125 258.460938 216.265625 267.375 216.265625 C 276.289062 216.265625 285.316406 222.28125 285.316406 233.789062 L 285.316406 257.941406 L 309.472656 257.941406 C 320.980469 257.941406 326.996094 266.96875 326.996094 275.886719 C 326.996094 284.800781 320.980469 293.824219 309.472656 293.824219 L 285.316406 293.824219 L 285.316406 317.984375 C 285.316406 329.488281 276.289062 335.507812 267.375 335.507812 Z M 225.277344 268.144531 C 218.160156 268.144531 217.953125 275.09375 217.953125 275.886719 C 217.953125 276.675781 218.160156 283.628906 225.277344 283.628906 L 259.632812 283.628906 L 259.632812 317.980469 C 259.632812 325.097656 266.582031 325.304688 267.375 325.304688 C 268.167969 325.304688 275.117188 325.097656 275.117188 317.980469 L 275.117188 283.628906 L 309.472656 283.628906 C 316.589844 283.628906 316.792969 276.675781 316.792969 275.886719 C 316.792969 275.09375 316.589844 268.144531 309.472656 268.144531 L 275.117188 268.144531 L 275.117188 233.789062 C 275.117188 226.667969 268.167969 226.464844 267.375 226.464844 C 266.582031 226.464844 259.632812 226.667969 259.632812 233.789062 L 259.632812 268.144531 Z M 225.277344 268.144531 " fill-opacity="1" fill-rule="nonzero"/></g><g clip-path="url(#c6f4553454)"><path fill="#ffffff" d="M 267.539062 226.210938 C 267.566406 226.210938 267.589844 226.210938 267.617188 226.210938 C 270.097656 226.222656 272.347656 227.238281 273.980469 228.871094 C 275.621094 230.511719 276.636719 232.777344 276.636719 235.277344 L 276.644531 235.277344 L 276.644531 267.015625 L 308.378906 267.015625 C 310.875 267.015625 313.140625 268.035156 314.785156 269.679688 C 316.421875 271.3125 317.4375 273.566406 317.449219 276.050781 C 317.449219 276.074219 317.449219 276.101562 317.449219 276.128906 C 317.4375 278.605469 316.417969 280.855469 314.785156 282.492188 C 313.144531 284.128906 310.878906 285.144531 308.378906 285.144531 L 308.378906 285.152344 L 276.644531 285.152344 L 276.644531 316.890625 C 276.644531 319.386719 275.621094 321.652344 273.980469 323.296875 C 272.34375 324.929688 270.089844 325.949219 267.609375 325.957031 C 267.582031 325.960938 267.554688 325.960938 267.53125 325.957031 C 265.050781 325.945312 262.800781 324.929688 261.167969 323.296875 C 259.527344 321.65625 258.511719 319.390625 258.511719 316.890625 L 258.503906 316.890625 L 258.503906 285.152344 L 226.769531 285.152344 C 224.273438 285.152344 222.003906 284.132812 220.363281 282.492188 C 218.726562 280.855469 217.707031 278.601562 217.699219 276.117188 C 217.699219 276.09375 217.699219 276.066406 217.699219 276.039062 C 217.710938 273.5625 218.726562 271.3125 220.363281 269.679688 C 222 268.039062 224.269531 267.023438 226.769531 267.023438 L 226.769531 267.015625 L 258.503906 267.015625 L 258.503906 235.277344 C 258.503906 232.78125 259.523438 230.515625 261.167969 228.871094 C 262.804688 227.234375 265.058594 226.21875 267.539062 226.210938 " fill-opacity="1" fill-rule="nonzero"/></g></svg>