<svg xmlns="http://www.w3.org/2000/svg" xmlns:xlink="http://www.w3.org/1999/xlink" width="512" zoomAndPan="magnify" viewBox="0 0 384 383.999986" height="512" preserveAspectRatio="xMidYMid meet" version="1.0"><path fill="#ffffff" d="M 192 5.996094 C 86.398438 5.996094 0 92.375 0 197.953125 C 0 279.535156 51.199219 349.121094 122.398438 377.113281 C 129.601562 375.515625 136 369.117188 136 361.117188 L 136 325.925781 L 115.199219 325.925781 C 100 325.925781 87.199219 318.726562 80.800781 307.53125 C 79.199219 304.332031 77.601562 300.332031 76 296.332031 C 72.800781 287.535156 68.800781 277.9375 60.800781 272.335938 C 57.601562 269.9375 56 265.140625 56.800781 261.140625 C 58.398438 257.140625 62.398438 253.941406 69.601562 254.742188 C 77.601562 255.542969 89.601562 264.339844 96.800781 273.9375 C 103.199219 281.933594 108 286.734375 117.601562 286.734375 L 120 286.734375 C 127.199219 286.734375 144.800781 286.734375 148 283.535156 C 150.398438 280.335938 152 277.9375 154.398438 275.535156 C 106.398438 265.9375 79.199219 237.945312 79.199219 195.554688 C 79.199219 181.15625 83.199219 166.761719 92 153.964844 C 88.800781 141.964844 81.601562 110.773438 96.800781 97.175781 L 99.199219 94.777344 L 102.398438 94.777344 C 123.199219 94.777344 138.398438 103.574219 148 110.773438 C 176 100.375 208 100.375 236 110.773438 C 244.800781 103.574219 260 94.777344 281.601562 94.777344 L 284.800781 94.777344 L 287.199219 97.175781 C 302.398438 111.574219 295.199219 141.964844 292 153.964844 C 300 166.761719 304.800781 181.15625 304.800781 195.554688 C 304.800781 237.945312 277.601562 265.9375 230.398438 275.535156 C 242.398438 288.332031 248.800781 307.53125 248.800781 322.726562 L 248.800781 361.917969 C 248.800781 369.917969 254.398438 376.316406 262.398438 377.914062 C 332.800781 349.121094 384 279.535156 384 197.953125 C 384 92.375 297.601562 5.996094 192 5.996094 Z M 192 5.996094 " fill-opacity="1" fill-rule="nonzero"/></svg>