<svg xmlns="http://www.w3.org/2000/svg" xmlns:xlink="http://www.w3.org/1999/xlink" width="512" zoomAndPan="magnify" viewBox="0 0 384 383.999986" height="512" preserveAspectRatio="xMidYMid meet" version="1.0"><path fill="#ff5757" d="M 384.289062 191.957031 C 384.289062 195.101562 384.214844 198.242188 384.058594 201.382812 C 383.90625 204.523438 383.671875 207.65625 383.363281 210.785156 C 383.058594 213.914062 382.671875 217.03125 382.210938 220.140625 C 381.75 223.25 381.210938 226.347656 380.597656 229.429688 C 379.984375 232.515625 379.296875 235.582031 378.535156 238.628906 C 377.769531 241.679688 376.933594 244.707031 376.019531 247.714844 C 375.105469 250.722656 374.121094 253.707031 373.0625 256.667969 C 372.003906 259.628906 370.871094 262.558594 369.667969 265.464844 C 368.464844 268.367188 367.191406 271.242188 365.847656 274.082031 C 364.503906 276.925781 363.089844 279.730469 361.609375 282.503906 C 360.128906 285.277344 358.578125 288.011719 356.960938 290.707031 C 355.347656 293.402344 353.664062 296.058594 351.917969 298.671875 C 350.171875 301.285156 348.363281 303.855469 346.488281 306.378906 C 344.617188 308.90625 342.683594 311.382812 340.691406 313.8125 C 338.695312 316.242188 336.644531 318.621094 334.53125 320.949219 C 332.421875 323.28125 330.253906 325.554688 328.03125 327.777344 C 325.808594 330 323.53125 332.167969 321.203125 334.277344 C 318.875 336.390625 316.496094 338.441406 314.0625 340.4375 C 311.632812 342.429688 309.15625 344.363281 306.632812 346.238281 C 304.105469 348.109375 301.539062 349.917969 298.925781 351.664062 C 296.308594 353.414062 293.65625 355.09375 290.960938 356.710938 C 288.261719 358.324219 285.527344 359.875 282.757812 361.355469 C 279.984375 362.839844 277.175781 364.25 274.335938 365.59375 C 271.492188 366.9375 268.621094 368.214844 265.714844 369.417969 C 262.8125 370.617188 259.878906 371.75 256.921875 372.808594 C 253.960938 373.867188 250.976562 374.851562 247.96875 375.765625 C 244.960938 376.679688 241.929688 377.515625 238.882812 378.28125 C 235.832031 379.042969 232.765625 379.734375 229.683594 380.347656 C 226.601562 380.960938 223.503906 381.496094 220.394531 381.957031 C 217.285156 382.417969 214.164062 382.804688 211.039062 383.113281 C 207.910156 383.421875 204.773438 383.652344 201.636719 383.804688 C 198.496094 383.960938 195.355469 384.039062 192.210938 384.039062 C 189.066406 384.039062 185.925781 383.960938 182.785156 383.804688 C 179.644531 383.652344 176.511719 383.421875 173.382812 383.113281 C 170.253906 382.804688 167.136719 382.417969 164.027344 381.957031 C 160.917969 381.496094 157.820312 380.960938 154.738281 380.347656 C 151.652344 379.734375 148.589844 379.042969 145.539062 378.28125 C 142.488281 377.515625 139.460938 376.679688 136.453125 375.765625 C 133.445312 374.855469 130.460938 373.867188 127.5 372.808594 C 124.539062 371.75 121.609375 370.617188 118.703125 369.417969 C 115.800781 368.214844 112.925781 366.9375 110.085938 365.59375 C 107.242188 364.25 104.4375 362.839844 101.664062 361.355469 C 98.890625 359.875 96.15625 358.328125 93.460938 356.710938 C 90.765625 355.09375 88.109375 353.414062 85.496094 351.667969 C 82.882812 349.921875 80.3125 348.109375 77.789062 346.238281 C 75.261719 344.363281 72.785156 342.433594 70.355469 340.4375 C 67.925781 338.441406 65.546875 336.390625 63.21875 334.277344 C 60.886719 332.167969 58.613281 330 56.390625 327.777344 C 54.167969 325.554688 52 323.28125 49.886719 320.949219 C 47.777344 318.621094 45.726562 316.242188 43.730469 313.8125 C 41.734375 311.382812 39.804688 308.90625 37.929688 306.378906 C 36.058594 303.855469 34.25 301.285156 32.5 298.671875 C 30.753906 296.058594 29.074219 293.402344 27.457031 290.707031 C 25.839844 288.007812 24.292969 285.273438 22.8125 282.503906 C 21.328125 279.730469 19.917969 276.921875 18.570312 274.082031 C 17.226562 271.238281 15.953125 268.367188 14.75 265.464844 C 13.546875 262.558594 12.417969 259.625 11.359375 256.667969 C 10.300781 253.707031 9.3125 250.722656 8.402344 247.714844 C 7.488281 244.707031 6.652344 241.679688 5.886719 238.628906 C 5.121094 235.578125 4.433594 232.515625 3.820312 229.429688 C 3.207031 226.347656 2.671875 223.25 2.210938 220.140625 C 1.75 217.03125 1.363281 213.914062 1.054688 210.785156 C 0.746094 207.65625 0.515625 204.523438 0.363281 201.382812 C 0.207031 198.242188 0.128906 195.101562 0.128906 191.957031 C 0.128906 188.816406 0.207031 185.671875 0.363281 182.535156 C 0.515625 179.394531 0.746094 176.257812 1.054688 173.132812 C 1.363281 170.003906 1.75 166.882812 2.210938 163.773438 C 2.671875 160.664062 3.207031 157.566406 3.820312 154.484375 C 4.433594 151.402344 5.121094 148.335938 5.886719 145.285156 C 6.652344 142.238281 7.488281 139.207031 8.402344 136.199219 C 9.3125 133.191406 10.300781 130.207031 11.359375 127.246094 C 12.417969 124.289062 13.546875 121.355469 14.75 118.453125 C 15.953125 115.546875 17.226562 112.675781 18.570312 109.832031 C 19.917969 106.992188 21.328125 104.183594 22.8125 101.410156 C 24.292969 98.640625 25.839844 95.90625 27.457031 93.207031 C 29.074219 90.511719 30.753906 87.855469 32.5 85.242188 C 34.25 82.628906 36.058594 80.058594 37.929688 77.535156 C 39.804688 75.011719 41.734375 72.535156 43.730469 70.105469 C 45.726562 67.671875 47.777344 65.292969 49.886719 62.964844 C 52 60.636719 54.167969 58.359375 56.390625 56.136719 C 58.613281 53.914062 60.886719 51.746094 63.21875 49.636719 C 65.546875 47.523438 67.925781 45.472656 70.355469 43.476562 C 72.785156 41.484375 75.261719 39.550781 77.789062 37.679688 C 80.3125 35.804688 82.882812 33.996094 85.496094 32.25 C 88.109375 30.503906 90.765625 28.820312 93.460938 27.207031 C 96.15625 25.589844 98.890625 24.039062 101.664062 22.558594 C 104.4375 21.078125 107.242188 19.664062 110.085938 18.320312 C 112.925781 16.976562 115.800781 15.703125 118.703125 14.5 C 121.609375 13.296875 124.539062 12.164062 127.5 11.105469 C 130.460938 10.046875 133.445312 9.0625 136.453125 8.148438 C 139.460938 7.238281 142.488281 6.398438 145.539062 5.632812 C 148.589844 4.871094 151.652344 4.183594 154.738281 3.570312 C 157.820312 2.957031 160.917969 2.417969 164.027344 1.957031 C 167.136719 1.496094 170.253906 1.113281 173.382812 0.804688 C 176.511719 0.496094 179.644531 0.265625 182.785156 0.109375 C 185.925781 -0.0429688 189.066406 -0.121094 192.210938 -0.121094 C 195.355469 -0.121094 198.496094 -0.0429688 201.636719 0.109375 C 204.773438 0.265625 207.910156 0.496094 211.039062 0.804688 C 214.164062 1.113281 217.285156 1.496094 220.394531 1.957031 C 223.503906 2.417969 226.601562 2.957031 229.683594 3.570312 C 232.765625 4.183594 235.832031 4.871094 238.882812 5.632812 C 241.929688 6.398438 244.960938 7.234375 247.96875 8.148438 C 250.976562 9.0625 253.960938 10.046875 256.921875 11.105469 C 259.878906 12.164062 262.8125 13.296875 265.714844 14.5 C 268.621094 15.703125 271.492188 16.976562 274.335938 18.320312 C 277.175781 19.664062 279.984375 21.078125 282.757812 22.558594 C 285.527344 24.039062 288.261719 25.589844 290.960938 27.203125 C 293.65625 28.820312 296.308594 30.503906 298.925781 32.25 C 301.539062 33.996094 304.105469 35.804688 306.632812 37.675781 C 309.15625 39.550781 311.632812 41.484375 314.0625 43.476562 C 316.496094 45.472656 318.875 47.523438 321.203125 49.636719 C 323.53125 51.746094 325.808594 53.914062 328.03125 56.136719 C 330.253906 58.359375 332.421875 60.636719 334.53125 62.964844 C 336.644531 65.292969 338.695312 67.671875 340.691406 70.105469 C 342.683594 72.535156 344.617188 75.011719 346.492188 77.535156 C 348.363281 80.058594 350.171875 82.628906 351.917969 85.242188 C 353.664062 87.855469 355.347656 90.511719 356.960938 93.207031 C 358.578125 95.90625 360.128906 98.640625 361.609375 101.410156 C 363.089844 104.183594 364.503906 106.992188 365.847656 109.832031 C 367.191406 112.675781 368.464844 115.546875 369.667969 118.453125 C 370.871094 121.355469 372.003906 124.289062 373.0625 127.246094 C 374.121094 130.207031 375.105469 133.191406 376.019531 136.199219 C 376.933594 139.207031 377.769531 142.238281 378.535156 145.285156 C 379.296875 148.335938 379.984375 151.402344 380.597656 154.484375 C 381.210938 157.566406 381.75 160.664062 382.210938 163.773438 C 382.671875 166.882812 383.058594 170.003906 383.367188 173.132812 C 383.671875 176.257812 383.90625 179.394531 384.058594 182.53125 C 384.214844 185.671875 384.289062 188.816406 384.289062 191.957031 Z M 384.289062 191.957031 " fill-opacity="1" fill-rule="nonzero"/><path fill="#ffffff" d="M 142.652344 126.183594 L 241.765625 126.183594 C 242.046875 126.183594 242.324219 126.210938 242.597656 126.265625 C 242.875 126.320312 243.144531 126.402344 243.402344 126.511719 C 243.664062 126.617188 243.910156 126.75 244.144531 126.90625 C 244.375 127.0625 244.59375 127.238281 244.792969 127.4375 C 244.992188 127.636719 245.167969 127.855469 245.324219 128.085938 C 245.480469 128.320312 245.613281 128.566406 245.71875 128.828125 C 245.828125 129.085938 245.910156 129.355469 245.964844 129.632812 C 246.019531 129.90625 246.046875 130.1875 246.046875 130.46875 L 246.046875 280.992188 C 246.046875 281.273438 246.019531 281.550781 245.964844 281.828125 C 245.910156 282.101562 245.828125 282.371094 245.71875 282.628906 C 245.613281 282.890625 245.480469 283.136719 245.324219 283.371094 C 245.167969 283.605469 244.992188 283.820312 244.792969 284.019531 C 244.59375 284.21875 244.375 284.394531 244.144531 284.550781 C 243.910156 284.707031 243.664062 284.839844 243.402344 284.949219 C 243.144531 285.054688 242.875 285.136719 242.597656 285.191406 C 242.324219 285.246094 242.046875 285.273438 241.765625 285.273438 L 142.652344 285.273438 C 142.371094 285.273438 142.09375 285.246094 141.820312 285.191406 C 141.542969 285.136719 141.273438 285.054688 141.015625 284.949219 C 140.753906 284.839844 140.507812 284.707031 140.273438 284.550781 C 140.039062 284.394531 139.824219 284.21875 139.625 284.019531 C 139.425781 283.820312 139.25 283.605469 139.09375 283.371094 C 138.9375 283.136719 138.804688 282.890625 138.699219 282.628906 C 138.589844 282.371094 138.507812 282.101562 138.453125 281.828125 C 138.398438 281.550781 138.371094 281.273438 138.371094 280.992188 L 138.371094 130.46875 C 138.371094 130.1875 138.398438 129.90625 138.453125 129.632812 C 138.507812 129.355469 138.589844 129.085938 138.699219 128.828125 C 138.804688 128.566406 138.9375 128.320312 139.09375 128.085938 C 139.25 127.855469 139.425781 127.636719 139.625 127.4375 C 139.824219 127.238281 140.039062 127.0625 140.273438 126.90625 C 140.507812 126.75 140.753906 126.617188 141.015625 126.511719 C 141.273438 126.402344 141.542969 126.320312 141.820312 126.265625 C 142.09375 126.210938 142.371094 126.183594 142.652344 126.183594 Z M 142.652344 126.183594 " fill-opacity="1" fill-rule="nonzero"/><path stroke-linecap="round" transform="matrix(3.772747, 0, 0, 3.772747, 2.002022, -3598.874235)" fill="none" stroke-linejoin="round" d="M 53.738078 984.400455 C 53.738078 984.624098 53.716335 984.845671 53.672848 985.065173 C 53.628327 985.284675 53.564133 985.497964 53.478196 985.704006 C 53.393294 985.911083 53.287685 986.107807 53.163438 986.294176 C 53.039192 986.47951 52.897344 986.65242 52.739965 986.810834 C 52.581551 986.969248 52.408642 987.110061 52.223308 987.234307 C 52.036938 987.358553 51.840215 987.464163 51.633138 987.549064 C 51.427096 987.635001 51.213806 987.700231 50.994304 987.743717 C 50.774802 987.787203 50.55323 987.808946 50.328551 987.808946 C 50.104908 987.808946 49.883335 987.787203 49.663833 987.743717 C 49.444331 987.699195 49.231042 987.635001 49.023964 987.549064 C 48.817923 987.464163 48.621199 987.358553 48.43483 987.234307 C 48.24846 987.110061 48.076586 986.969248 47.918172 986.810834 C 47.759758 986.65242 47.618945 986.47951 47.494699 986.294176 C 47.370453 986.107807 47.264843 985.911083 47.179942 985.704006 C 47.094005 985.497964 47.028775 985.284675 46.985289 985.065173 C 46.941803 984.845671 46.92006 984.624098 46.92006 984.400455 C 46.92006 984.175776 46.941803 983.954204 46.985289 983.734702 C 47.028775 983.5152 47.094005 983.30191 47.179942 983.095868 C 47.264843 982.888791 47.370453 982.692068 47.494699 982.505698 C 47.618945 982.320364 47.759758 982.147455 47.918172 981.989041 C 48.076586 981.830627 48.24846 981.689814 48.43483 981.565568 C 48.621199 981.441321 48.817923 981.335712 49.023964 981.25081 C 49.231042 981.164873 49.444331 981.099644 49.663833 981.056158 C 49.883335 981.012671 50.104908 980.990928 50.328551 980.990928 C 50.55323 980.990928 50.774802 981.012671 50.994304 981.056158 C 51.213806 981.099644 51.427096 981.164873 51.633138 981.25081 C 51.840215 981.335712 52.036938 981.441321 52.223308 981.565568 C 52.408642 981.689814 52.581551 981.830627 52.739965 981.989041 C 52.897344 982.147455 53.039192 982.319329 53.163438 982.505698 C 53.287685 982.692068 53.393294 982.888791 53.478196 983.094833 C 53.564133 983.30191 53.628327 983.5152 53.672848 983.734702 C 53.716335 983.954204 53.738078 984.175776 53.738078 984.400455 Z M 53.738078 984.400455 " stroke="#ffffff" stroke-width="2" stroke-opacity="1" stroke-miterlimit="4"/><path stroke-linecap="round" transform="matrix(3.772747, 0, 0, 3.772747, 2.002022, -3598.874235)" fill-opacity="1" fill="#ffffff" fill-rule="nonzero" stroke-linejoin="round" d="M 33.449685 984.720389 L 67.383432 984.720389 C 67.493183 984.720389 67.601899 984.730743 67.709579 984.752486 C 67.818294 984.773194 67.922868 984.805291 68.024336 984.847742 C 68.125804 984.889157 68.22313 984.940927 68.314244 985.002014 C 68.405358 985.063102 68.49026 985.132473 68.567914 985.211162 C 68.645568 985.288816 68.714939 985.372683 68.776027 985.464832 C 68.83815 985.555946 68.888884 985.653272 68.931334 985.75474 C 68.973785 985.856208 69.004847 985.960782 69.02659 986.068462 C 69.048333 986.177178 69.058687 986.285893 69.058687 986.395644 L 69.058687 988.324569 C 69.058687 988.435355 69.048333 988.544071 69.02659 988.651751 C 69.004847 988.759431 68.973785 988.86504 68.931334 988.966508 C 68.888884 989.067976 68.83815 989.164267 68.776027 989.256416 C 68.714939 989.34753 68.645568 989.432432 68.567914 989.510086 C 68.49026 989.58774 68.405358 989.657111 68.314244 989.718198 C 68.22313 989.779286 68.125804 989.831056 68.024336 989.873506 C 67.922868 989.914922 67.818294 989.947019 67.709579 989.968762 C 67.601899 989.990505 67.493183 990.000859 67.383432 990.000859 L 33.449685 990.000859 C 33.339935 990.000859 33.231219 989.990505 33.123539 989.968762 C 33.014823 989.947019 32.910249 989.914922 32.808781 989.873506 C 32.707314 989.831056 32.609987 989.779286 32.518873 989.718198 C 32.427759 989.657111 32.342858 989.58774 32.265204 989.510086 C 32.18755 989.432432 32.117143 989.34753 32.056056 989.256416 C 31.994968 989.164267 31.943199 989.067976 31.901783 988.966508 C 31.859332 988.86504 31.827235 988.759431 31.806528 988.651751 C 31.784784 988.544071 31.774431 988.435355 31.774431 988.324569 L 31.774431 986.395644 C 31.774431 986.285893 31.784784 986.177178 31.806528 986.068462 C 31.827235 985.960782 31.859332 985.856208 31.901783 985.75474 C 31.943199 985.653272 31.994968 985.555946 32.056056 985.464832 C 32.117143 985.373718 32.18755 985.288816 32.265204 985.211162 C 32.342858 985.133508 32.427759 985.063102 32.518873 985.002014 C 32.609987 984.940927 32.707314 984.889157 32.808781 984.847742 C 32.910249 984.805291 33.014823 984.773194 33.123539 984.752486 C 33.231219 984.730743 33.339935 984.720389 33.449685 984.720389 Z M 33.449685 984.720389 " stroke="#ff8d8d" stroke-width="0.778" stroke-opacity="1" stroke-miterlimit="4"/><path fill="#ff5757" d="M 160.835938 151.273438 C 161.179688 151.273438 161.519531 151.308594 161.855469 151.375 C 162.191406 151.441406 162.519531 151.539062 162.835938 151.671875 C 163.152344 151.800781 163.453125 151.964844 163.738281 152.15625 C 164.023438 152.34375 164.289062 152.5625 164.53125 152.804688 C 164.773438 153.046875 164.992188 153.3125 165.183594 153.597656 C 165.375 153.882812 165.535156 154.183594 165.664062 154.5 C 165.796875 154.816406 165.894531 155.144531 165.964844 155.480469 C 166.03125 155.820312 166.0625 156.160156 166.0625 156.503906 L 166.0625 266.964844 C 166.0625 267.308594 166.03125 267.648438 165.964844 267.984375 C 165.894531 268.320312 165.796875 268.648438 165.664062 268.964844 C 165.535156 269.28125 165.375 269.582031 165.183594 269.871094 C 164.992188 270.152344 164.773438 270.417969 164.53125 270.660156 C 164.289062 270.90625 164.023438 271.121094 163.738281 271.3125 C 163.453125 271.503906 163.152344 271.664062 162.835938 271.796875 C 162.519531 271.925781 162.191406 272.027344 161.855469 272.09375 C 161.519531 272.160156 161.179688 272.195312 160.835938 272.195312 C 160.492188 272.195312 160.152344 272.160156 159.816406 272.09375 C 159.476562 272.027344 159.152344 271.925781 158.832031 271.796875 C 158.515625 271.664062 158.214844 271.503906 157.929688 271.3125 C 157.644531 271.121094 157.378906 270.90625 157.136719 270.664062 C 156.894531 270.421875 156.675781 270.15625 156.488281 269.871094 C 156.296875 269.585938 156.136719 269.28125 156.003906 268.964844 C 155.871094 268.648438 155.773438 268.320312 155.707031 267.984375 C 155.640625 267.648438 155.605469 267.308594 155.605469 266.964844 L 155.605469 156.503906 C 155.605469 156.160156 155.640625 155.820312 155.707031 155.480469 C 155.773438 155.144531 155.871094 154.816406 156.003906 154.5 C 156.136719 154.183594 156.296875 153.882812 156.488281 153.597656 C 156.675781 153.3125 156.894531 153.046875 157.136719 152.804688 C 157.378906 152.5625 157.644531 152.34375 157.929688 152.15625 C 158.214844 151.964844 158.515625 151.800781 158.832031 151.671875 C 159.152344 151.539062 159.476562 151.441406 159.816406 151.375 C 160.152344 151.308594 160.492188 151.273438 160.835938 151.273438 Z M 160.835938 151.273438 " fill-opacity="1" fill-rule="nonzero"/><path fill="#ff5757" d="M 192.207031 151.273438 C 192.550781 151.273438 192.890625 151.308594 193.230469 151.375 C 193.566406 151.441406 193.894531 151.539062 194.210938 151.671875 C 194.527344 151.800781 194.828125 151.964844 195.113281 152.15625 C 195.398438 152.34375 195.664062 152.5625 195.90625 152.804688 C 196.148438 153.046875 196.367188 153.3125 196.554688 153.597656 C 196.746094 153.882812 196.910156 154.183594 197.039062 154.5 C 197.171875 154.816406 197.269531 155.144531 197.335938 155.480469 C 197.40625 155.820312 197.4375 156.160156 197.4375 156.503906 L 197.4375 266.964844 C 197.4375 267.308594 197.40625 267.648438 197.335938 267.984375 C 197.269531 268.320312 197.171875 268.648438 197.039062 268.964844 C 196.910156 269.28125 196.746094 269.582031 196.554688 269.871094 C 196.367188 270.152344 196.148438 270.417969 195.90625 270.660156 C 195.664062 270.90625 195.398438 271.121094 195.113281 271.3125 C 194.828125 271.503906 194.527344 271.664062 194.210938 271.796875 C 193.894531 271.925781 193.566406 272.027344 193.230469 272.09375 C 192.890625 272.160156 192.550781 272.195312 192.207031 272.195312 C 191.867188 272.195312 191.527344 272.160156 191.1875 272.09375 C 190.851562 272.027344 190.523438 271.925781 190.207031 271.796875 C 189.890625 271.664062 189.589844 271.503906 189.304688 271.3125 C 189.019531 271.121094 188.753906 270.90625 188.511719 270.664062 C 188.269531 270.421875 188.050781 270.15625 187.859375 269.871094 C 187.671875 269.585938 187.507812 269.28125 187.378906 268.964844 C 187.246094 268.648438 187.148438 268.320312 187.082031 267.984375 C 187.011719 267.648438 186.980469 267.308594 186.980469 266.964844 L 186.980469 156.503906 C 186.980469 156.160156 187.011719 155.820312 187.082031 155.480469 C 187.148438 155.144531 187.246094 154.816406 187.378906 154.5 C 187.507812 154.183594 187.671875 153.882812 187.859375 153.597656 C 188.050781 153.3125 188.269531 153.046875 188.511719 152.804688 C 188.753906 152.5625 189.019531 152.34375 189.304688 152.15625 C 189.589844 151.964844 189.890625 151.800781 190.207031 151.671875 C 190.523438 151.539062 190.851562 151.441406 191.1875 151.375 C 191.527344 151.308594 191.867188 151.273438 192.207031 151.273438 Z M 192.207031 151.273438 " fill-opacity="1" fill-rule="nonzero"/><path fill="#ff5757" d="M 223.582031 151.273438 C 223.925781 151.273438 224.265625 151.308594 224.601562 151.375 C 224.941406 151.441406 225.265625 151.539062 225.585938 151.671875 C 225.902344 151.800781 226.203125 151.964844 226.488281 152.15625 C 226.773438 152.34375 227.039062 152.5625 227.28125 152.804688 C 227.523438 153.046875 227.738281 153.3125 227.929688 153.597656 C 228.121094 153.882812 228.28125 154.183594 228.414062 154.5 C 228.546875 154.816406 228.644531 155.144531 228.710938 155.480469 C 228.777344 155.820312 228.8125 156.160156 228.8125 156.503906 L 228.8125 266.964844 C 228.8125 267.308594 228.777344 267.648438 228.710938 267.984375 C 228.644531 268.320312 228.546875 268.648438 228.414062 268.964844 C 228.28125 269.28125 228.121094 269.582031 227.929688 269.871094 C 227.738281 270.152344 227.523438 270.417969 227.28125 270.660156 C 227.039062 270.90625 226.773438 271.121094 226.488281 271.3125 C 226.203125 271.503906 225.902344 271.664062 225.585938 271.796875 C 225.265625 271.925781 224.941406 272.027344 224.601562 272.09375 C 224.265625 272.160156 223.925781 272.195312 223.582031 272.195312 C 223.238281 272.195312 222.898438 272.160156 222.5625 272.09375 C 222.226562 272.027344 221.898438 271.925781 221.582031 271.796875 C 221.265625 271.664062 220.964844 271.503906 220.679688 271.3125 C 220.390625 271.121094 220.128906 270.90625 219.886719 270.664062 C 219.644531 270.421875 219.425781 270.15625 219.234375 269.871094 C 219.042969 269.585938 218.882812 269.28125 218.753906 268.964844 C 218.621094 268.648438 218.519531 268.320312 218.453125 267.984375 C 218.386719 267.648438 218.355469 267.308594 218.355469 266.964844 L 218.355469 156.503906 C 218.355469 156.160156 218.386719 155.820312 218.453125 155.480469 C 218.519531 155.144531 218.621094 154.816406 218.753906 154.5 C 218.882812 154.183594 219.042969 153.882812 219.234375 153.597656 C 219.425781 153.3125 219.644531 153.046875 219.886719 152.804688 C 220.128906 152.5625 220.390625 152.34375 220.679688 152.15625 C 220.964844 151.964844 221.265625 151.800781 221.582031 151.671875 C 221.898438 151.539062 222.226562 151.441406 222.5625 151.375 C 222.898438 151.308594 223.238281 151.273438 223.582031 151.273438 Z M 223.582031 151.273438 " fill-opacity="1" fill-rule="nonzero"/></svg>